PathFileType	4	(X/Y/Z)	C:/Users/opensim2020/Desktop/walking_exp_matlab/subject06_walking22_straight_03.trc	
DataRate	CameraRate	NumFrames	NumMarkers	Units	OrigDataRate	OrigDataStartFrame	OrigNumFrames	
100.00	100.00	5	44	mm	100.00	1741	77	
Frame#	Time	LFHD			RFHD			LBHD			RBHD			C7			T10			CLAV			STRN			RBAK			LSHO			LUPA			LELB			LFRM			LWRA			LWRB			LFIN			RSHO			RUPA			RELB			RFRM			RWRA			RWRB			RFIN			LASI			RASI			LPSI			RPSI			LTHI			LKNE			LTIB			LANK			LHEE			LTOE			RTHI			RKNE			RTIB			RANK			RHEE			RTOE			*39			*40			*41			*42			*43			
		X1	Y1	Z1	X2	Y2	Z2	X3	Y3	Z3	X4	Y4	Z4	X5	Y5	Z5	X6	Y6	Z6	X7	Y7	Z7	X8	Y8	Z8	X9	Y9	Z9	X10	Y10	Z10	X11	Y11	Z11	X12	Y12	Z12	X13	Y13	Z13	X14	Y14	Z14	X15	Y15	Z15	X16	Y16	Z16	X17	Y17	Z17	X18	Y18	Z18	X19	Y19	Z19	X20	Y20	Z20	X21	Y21	Z21	X22	Y22	Z22	X23	Y23	Z23	X24	Y24	Z24	X25	Y25	Z25	X26	Y26	Z26	X27	Y27	Z27	X28	Y28	Z28	X29	Y29	Z29	X30	Y30	Z30	X31	Y31	Z31	X32	Y32	Z32	X33	Y33	Z33	X34	Y34	Z34	X35	Y35	Z35	X36	Y36	Z36	X37	Y37	Z37	X38	Y38	Z38	X39	Y39	Z39	X40	Y40	Z40	X41	Y41	Z41	X42	Y42	Z42	X43	Y43	Z43	X44	Y44	Z44	

58	0.570	1369.72986	310.41708	1612.31201	1502.33154	316.83542	1607.34497	1379.69348	173.56622	1568.58557	1509.20935	181.43924	1568.50647	1430.54297	165.33116	1413.14001	1437.24414	111.53857	1085.41528	1439.53613	268.64722	1327.07874	1427.55322	298.88385	1151.78650	1495.46484	73.51422	1248.03638	1274.59570	230.54347	1366.12988	1190.81641	255.78473	1171.63989	1170.33252	277.80539	1062.85522	1165.59082	391.04669	968.25964	1230.47754	504.08289	938.12347	1189.40430	476.23489	888.36884	1201.00085	563.27173	871.21667	1596.42175	211.21513	1363.03149	1674.28345	95.54424	1199.93311	1696.97461	54.23462	1086.21924	1724.72778	7.68976	977.20044	1716.36584	-8.88592	822.78113	1742.77124	-59.97844	856.65411	1753.80432	-69.09594	772.15143	1321.47693	279.21384	917.41333	1544.35486	299.73804	929.88861	1366.23950	125.46617	950.88214	1533.50159	147.10858	952.74011	1281.07434	145.75975	617.25098	1307.92114	96.12079	459.37100	1325.09070	-54.70633	247.65137	1371.79810	-145.28319	101.93991	1416.53760	-190.11774	104.30207	1374.25806	-18.63116	39.47689	1626.37964	326.20346	612.36975	1598.70728	386.30679	502.55670	1600.86267	462.40744	257.82059	1565.08557	546.61829	89.21150	1515.29724	529.15613	52.30317	1583.83679	697.32745	119.21996	1432.54150	216.51262	1660.83325												 
59	0.580	1370.80774	326.67191	1611.05518	1503.36987	333.18948	1606.16614	1381.01038	189.82979	1567.23547	1510.50330	197.82915	1567.31445	1431.73755	181.85062	1411.69739	1436.98242	128.94727	1083.77600	1440.94373	285.34079	1325.86292	1428.82690	316.22256	1150.72314	1496.40869	90.42184	1246.50793	1275.88245	247.78574	1364.69543	1192.19543	273.79639	1170.21606	1171.57642	295.96585	1061.58936	1167.21521	410.31802	968.79462	1231.98450	523.82391	940.93384	1191.39136	496.72253	890.31439	1202.64661	584.27551	875.14081	1597.87488	227.97319	1361.53735	1675.37842	111.93061	1198.56653	1698.40991	70.50627	1084.99817	1726.41919	23.40818	976.30084	1718.13745	5.43891	821.67914	1744.73352	-45.18077	856.31653	1755.69092	-55.29730	771.83667	1321.84717	296.73608	916.05042	1544.63550	317.88004	929.48175	1366.30408	143.36166	949.42383	1533.37439	165.14447	952.04218	1281.60449	161.01439	615.96417	1308.33752	110.14806	458.55103	1325.23254	-46.46683	250.89871	1371.55688	-141.54762	108.12757	1416.16895	-186.05429	112.14530	1374.46887	-17.87724	39.95214	1626.36804	347.79330	613.54498	1598.17761	407.80276	504.56427	1601.16162	481.19150	257.66336	1564.66260	562.25970	87.58740	1515.60327	542.81555	50.69922	1579.93054	713.58997	115.66790	1433.70959	232.77393	1659.59155												 
60	0.590	1371.93738	343.06482	1610.18835	1504.43555	349.63223	1605.32397	1382.29199	206.20778	1566.32007	1511.81299	214.35139	1566.52185	1432.99988	198.55838	1410.51416	1436.76672	146.99550	1082.37109	1442.40393	302.23550	1324.95593	1430.31140	334.03998	1150.12805	1497.34509	107.81908	1245.09363	1277.30273	265.28235	1363.63757	1193.68030	291.67377	1169.19641	1172.98401	313.92175	1060.63245	1168.70544	429.20761	969.09625	1233.41724	542.82318	943.08289	1193.52234	516.39917	891.67175	1204.10046	604.46844	878.32202	1599.36938	244.75455	1360.38196	1676.68567	128.61555	1197.44434	1700.00952	87.26123	1083.82056	1728.39185	40.00249	975.39453	1721.54810	22.34093	821.92377	1746.87622	-29.22456	855.77661	1757.75745	-40.04564	771.32629	1322.38354	314.59109	914.91180	1544.98352	336.41980	929.29974	1366.30481	161.48970	948.48108	1533.06848	183.54765	951.57983	1282.40344	176.95430	614.66028	1308.89697	125.44286	457.51123	1325.49548	-36.92332	254.36311	1371.41736	-136.81334	114.87294	1415.99292	-181.09563	120.69270	1374.68799	-16.56608	40.46666	1626.22961	369.89813	615.55023	1597.38855	429.98663	507.16888	1601.38916	499.04526	257.26282	1564.28271	574.76251	84.91363	1516.32458	553.50415	47.99439	1575.84680	726.43805	110.10566	1434.93604	249.14670	1658.71313												 
61	0.600	1373.21667	359.46729	1609.59558	1505.55408	366.03503	1604.81458	1383.67664	222.59457	1565.73621	1513.17578	230.77266	1565.98682	1434.28491	215.42802	1409.54443	1436.70825	165.19965	1081.28772	1444.02576	319.34167	1324.42554	1431.85388	352.25473	1149.88245	1498.20264	125.53477	1243.61218	1278.77771	282.82059	1362.87695	1195.32544	309.54761	1168.50854	1174.58655	331.74747	1060.05811	1170.27100	447.52493	969.27045	1234.83630	561.28241	944.58368	1195.15833	535.30310	892.65375	1205.52319	623.51733	880.53864	1600.76196	261.57764	1359.54382	1678.16760	145.67152	1196.55823	1701.73596	104.52698	1082.81995	1730.37341	57.25564	974.44885	1722.31409	37.99234	819.51410	1749.15564	-12.14958	855.03046	1760.05811	-23.29147	770.55902	1323.24805	332.85168	914.08246	1545.45544	355.15979	929.41034	1366.32959	180.07437	947.87225	1532.83337	202.25929	951.35657	1283.32080	193.50410	613.26459	1309.68567	141.92525	456.24997	1326.05127	-26.35522	258.10724	1371.55457	-130.97479	122.20287	1416.16235	-174.73486	129.99538	1374.87500	-15.02446	40.90430	1625.78601	392.12158	617.97577	1596.37671	451.96738	509.66489	1601.50110	515.43030	256.38586	1563.89221	584.57538	81.40926	1516.59497	561.73309	44.26777	1572.31213	736.80737	103.56406	1436.20325	265.59790	1658.08179												 
62	0.610	1374.62732	375.81979	1609.12036	1506.78076	382.51053	1604.59717	1384.92297	239.10347	1565.35657	1514.44983	247.27971	1565.69910	1435.64893	232.43208	1408.78137	1437.11328	183.88290	1080.51941	1445.51929	336.72186	1324.18262	1433.36414	370.81903	1149.90942	1499.05615	143.48691	1242.18335	1280.48254	300.54752	1362.24805	1196.78931	327.26895	1168.17419	1176.42395	349.31659	1059.70068	1171.97437	465.03656	969.45605	1236.13403	579.16699	945.46039	1196.89868	553.36969	893.12708	1207.08936	641.49280	881.71832	1602.16541	278.49359	1359.01624	1679.81348	163.13600	1195.78821	1703.61487	122.32849	1081.95300	1732.29578	75.12868	973.54199	1725.17761	56.54327	819.02057	1751.54468	6.06096	854.16803	1762.61169	-5.19190	769.62671	1323.29041	350.88617	913.10992	1545.88464	374.43378	929.70392	1366.63330	198.95650	947.38361	1532.75891	221.48070	951.26624	1284.12146	210.90091	611.89331	1310.52942	159.79712	454.85367	1327.04468	-14.66915	262.03720	1372.23621	-123.88783	130.13469	1416.94092	-166.77333	139.91263	1375.29932	-13.49182	41.39635	1624.40247	414.36850	620.61646	1594.13123	473.85818	512.84351	1601.56348	530.19177	254.99927	1563.71350	592.33032	77.49468	1517.21729	567.31873	40.54204	1568.82373	744.86798	95.52352	1437.40173	281.97183	1657.77722												 
